HIERARCHY
ROOT joint_Root
{
	OFFSET 0.0 0.0 0.0
	CHANNELS 6 Xposition Yposition Zposition Zrotation Xrotation Yrotation 
	JOINT Hips
	{
		OFFSET -0.726466 93.3139 -2.00062
		CHANNELS 6 Xposition Yposition Zposition Zrotation Xrotation Yrotation 
		JOINT Spine
		{
			OFFSET 15.7357 0.0 0.0
			CHANNELS 6 Xposition Yposition Zposition Zrotation Xrotation Yrotation 
			JOINT Chest
			{
				OFFSET 8.98455 -0.406207 0.0
				CHANNELS 6 Xposition Yposition Zposition Zrotation Xrotation Yrotation 
				JOINT Neck
				{
					OFFSET 16.3773 0.0 0.0
					CHANNELS 6 Xposition Yposition Zposition Zrotation Xrotation Yrotation 
					JOINT Head
					{
						OFFSET 6.45672 0.0 0.0
						CHANNELS 6 Xposition Yposition Zposition Zrotation Xrotation Yrotation 
						End Site
						{
							OFFSET 0.0 0.0 0.0
						}
					}
				}
				JOINT Shoulder_L
				{
					OFFSET 12.9942 -0.242716 4.98039
					CHANNELS 6 Xposition Yposition Zposition Zrotation Xrotation Yrotation 
					JOINT UpperArm_L
					{
						OFFSET 5.34809 0.0 0.0
						CHANNELS 6 Xposition Yposition Zposition Zrotation Xrotation Yrotation 
						JOINT LowerArm_L
						{
							OFFSET 24.3286 1.87007e-05 0.0
							CHANNELS 6 Xposition Yposition Zposition Zrotation Xrotation Yrotation 
							JOINT Hand_L
							{
								OFFSET 22.2916 0.0 0.0
								CHANNELS 6 Xposition Yposition Zposition Zrotation Xrotation Yrotation 
								End Site
								{
									OFFSET 0.0 0.0 0.0
								}
							}
						}
					}
				}
				JOINT Shoulder_R
				{
					OFFSET 12.9945 -0.242716 -4.98039
					CHANNELS 6 Xposition Yposition Zposition Zrotation Xrotation Yrotation 
					JOINT UpperArm_R
					{
						OFFSET -5.34813 0.0 0.0
						CHANNELS 6 Xposition Yposition Zposition Zrotation Xrotation Yrotation 
						JOINT LowerArm_R
						{
							OFFSET -24.3289 0.000322201 0.0
							CHANNELS 6 Xposition Yposition Zposition Zrotation Xrotation Yrotation 
							JOINT Hand_R
							{
								OFFSET -22.2915 -0.000108084 0.0
								CHANNELS 6 Xposition Yposition Zposition Zrotation Xrotation Yrotation 
								End Site
								{
									OFFSET 0.0 0.0 0.0
								}
							}
						}
					}
				}
			}
		}
		JOINT UpperLeg_L
		{
			OFFSET -2.19248 -6.46944 0.0
			CHANNELS 6 Xposition Yposition Zposition Zrotation Xrotation Yrotation 
			JOINT LowerLeg_L
			{
				OFFSET 39.0811 0.0 -1.23785e-05
				CHANNELS 6 Xposition Yposition Zposition Zrotation Xrotation Yrotation 
				JOINT Foot_L
				{
					OFFSET 40.9854 0.0 -1.26872e-05
					CHANNELS 6 Xposition Yposition Zposition Zrotation Xrotation Yrotation 
					JOINT Toes_L
					{
						OFFSET 11.7543 0.0 0.0
						CHANNELS 6 Xposition Yposition Zposition Zrotation Xrotation Yrotation 
						End Site
						{
							OFFSET 0.0 0.0 0.0
						}
					}
				}
			}
		}
		JOINT UpperLeg_R
		{
			OFFSET -2.19251 6.46944 0.0
			CHANNELS 6 Xposition Yposition Zposition Zrotation Xrotation Yrotation 
			JOINT LowerLeg_R
			{
				OFFSET -39.0811 -0.00228153 -0.0401928
				CHANNELS 6 Xposition Yposition Zposition Zrotation Xrotation Yrotation 
				JOINT Foot_R
				{
					OFFSET -40.9854 0.0 0.0
					CHANNELS 6 Xposition Yposition Zposition Zrotation Xrotation Yrotation 
					JOINT Toes_R
					{
						OFFSET -11.7543 0.0 0.0
						CHANNELS 6 Xposition Yposition Zposition Zrotation Xrotation Yrotation 
						End Site
						{
							OFFSET 0.0 0.0 0.0
						}
					}
				}
			}
		}
	}
}
MOTION
Frames:	7
Frame Time:	0.0333333
0.000000 0.000000 0.000000 0.000000 0.000000 -0.000000 0.481956 92.856300 -1.065180 88.337400 -8.798910 3.462150 15.735700 0.000005 -0.000001 101.936000 86.772600 -102.427000 8.984550 -0.406207 -0.000000 -1.444770 1.374130 -0.962829 16.377300 -0.000001 -0.000001 4.207250 -2.346280 5.229250 6.456720 -0.000001 -0.000000 8.550420 -1.825150 -4.154880 12.994200 -0.242716 4.980390 -90.364500 1.115540 -71.903400 5.348090 -0.000007 -0.000001 -69.022300 37.876300 -9.360040 24.328600 0.000019 0.000005 3.340500 8.631650 -21.251500 22.291600 -0.000001 0.000005 3.904420 5.489250 -6.106420 12.994500 -0.242716 -4.980390 88.846600 3.697880 -72.663000 -5.348130 -0.000001 -0.000004 -72.208300 -17.782100 -78.297700 -24.328900 0.000322 -0.000009 16.543900 -4.204750 -103.866000 -22.291500 -0.000108 -0.000004 19.506100 5.232830 1.882180 -2.192480 -6.469440 -0.000000 -176.133000 -10.861200 -0.457583 39.081100 -0.000007 -0.000012 -0.072904 0.220797 18.272400 40.985400 -0.000006 -0.000013 -0.694985 -0.374503 -64.149400 11.754300 -0.000000 0.000003 -0.000000 -0.000002 -16.577600 -2.192510 6.469440 -0.000001 178.633000 6.973290 -178.818000 -39.081100 -0.002282 -0.040193 -0.033704 0.142046 14.613100 -40.985400 0.000008 0.000006 1.383090 9.805300 -62.660900 -11.754300 -0.000006 -0.000006 -0.003750 -0.048810 -18.558500
0.000000 0.000000 0.000000 0.000000 0.000000 -0.000000 0.483789 92.861200 -1.096900 88.339800 -8.756150 3.432130 15.735700 0.000005 -0.000001 101.436000 86.767500 -101.924000 8.984550 -0.406207 -0.000000 -1.423660 1.320710 -0.958671 16.377300 -0.000001 -0.000001 4.279670 -2.355070 5.231370 6.456720 -0.000001 -0.000000 8.420110 -1.849960 -4.098530 12.994200 -0.242716 4.980390 -90.364700 1.110430 -71.819100 5.348090 -0.000007 -0.000001 -68.917900 38.017600 -9.379010 24.328600 0.000019 0.000005 3.305740 8.593960 -21.132900 22.291600 -0.000001 0.000005 3.910950 5.487170 -6.025280 12.994500 -0.242716 -4.980390 88.837300 3.714000 -72.603500 -5.348130 -0.000001 -0.000004 -72.169700 -17.888700 -78.476400 -24.328900 0.000322 -0.000009 16.386000 -4.092560 -103.643000 -22.291500 -0.000108 -0.000004 19.582800 5.233620 1.861680 -2.192480 -6.469440 -0.000000 -176.146000 -10.779400 -0.508433 39.081100 -0.000007 -0.000012 -0.073518 0.222910 18.253100 40.985400 -0.000006 -0.000013 -0.699128 -0.387339 -64.114200 11.754300 -0.000000 0.000003 -0.000000 -0.000001 -16.577500 -2.192510 6.469440 -0.000001 178.644000 6.960390 -178.851000 -39.081100 -0.002282 -0.040193 -0.033761 0.142608 14.579400 -40.985400 0.000008 0.000006 1.348950 9.752570 -62.618400 -11.754300 -0.000006 -0.000006 -0.003767 -0.048994 -18.565900
0.000000 0.000000 0.000000 0.000000 0.000000 -0.000000 0.482168 92.862200 -1.123480 88.349000 -8.752090 3.366150 15.735700 0.000005 -0.000001 101.319000 86.763900 -101.802000 8.984550 -0.406207 -0.000000 -1.414180 1.308670 -0.948443 16.377300 -0.000001 -0.000001 4.328790 -2.368520 5.208280 6.456720 -0.000001 -0.000000 8.345030 -1.874290 -4.016040 12.994200 -0.242716 4.980390 -90.367200 1.116720 -71.797000 5.348090 -0.000007 -0.000001 -68.962000 37.780400 -9.311840 24.328600 0.000019 0.000005 3.323700 8.693990 -21.016600 22.291600 -0.000001 0.000005 3.987740 5.488800 -6.088760 12.994500 -0.242716 -4.980390 88.832100 3.717370 -72.544700 -5.348130 -0.000001 -0.000004 -72.105700 -18.004200 -78.593400 -24.328900 0.000322 -0.000009 16.253800 -4.002330 -103.464000 -22.291500 -0.000108 -0.000004 19.645100 5.234810 1.830750 -2.192480 -6.469440 -0.000000 -176.152000 -10.901800 -0.602740 39.081100 -0.000007 -0.000012 -0.073483 0.222686 18.262100 40.985400 -0.000006 -0.000013 -0.677724 -0.270658 -64.093000 11.754300 -0.000000 0.000003 -0.000000 -0.000003 -16.577600 -2.192510 6.469440 -0.000001 178.636000 6.937170 -178.942000 -39.081100 -0.002282 -0.040193 -0.035160 0.148042 14.574400 -40.985400 0.000008 0.000006 1.251100 9.763870 -62.574200 -11.754300 -0.000006 -0.000006 -0.003759 -0.048913 -18.562600
0.000000 0.000000 0.000000 0.000000 0.000000 -0.000000 0.471979 92.875200 -1.156860 88.362900 -8.712160 3.302900 15.735700 0.000005 -0.000001 101.114000 86.752000 -101.583000 8.984550 -0.406207 -0.000000 -1.386530 1.289340 -0.921414 16.377300 -0.000001 -0.000001 4.356580 -2.413010 5.233970 6.456720 -0.000001 -0.000000 8.254110 -1.847890 -4.063050 12.994200 -0.242716 4.980390 -90.371200 1.130240 -71.819200 5.348090 -0.000007 -0.000001 -68.971600 37.667300 -9.280990 24.328600 0.000019 0.000005 3.327980 8.742850 -20.934700 22.291600 -0.000001 0.000005 4.005950 5.487750 -6.047670 12.994500 -0.242716 -4.980390 88.824200 3.723600 -72.461800 -5.348130 -0.000001 -0.000004 -71.879600 -18.125600 -78.520200 -24.328900 0.000322 -0.000009 16.072000 -3.944300 -103.429000 -22.291500 -0.000108 -0.000004 19.723900 5.232490 1.890890 -2.192480 -6.469440 -0.000000 -176.197000 -10.759300 -0.646733 39.081100 -0.000007 -0.000012 -0.072797 0.221963 18.157700 40.985400 -0.000006 -0.000013 -0.703462 -0.408485 -64.017500 11.754300 -0.000000 0.000003 -0.000000 -0.000000 -16.577500 -2.192510 6.469440 -0.000001 178.668000 6.944190 -179.000000 -39.081100 -0.002282 -0.040193 -0.033296 0.141392 14.523100 -40.985400 0.000008 0.000006 1.354040 9.671470 -62.547100 -11.754300 -0.000006 -0.000006 -0.003798 -0.049326 -18.579500
0.000000 0.000000 0.000000 0.000000 0.000000 -0.000000 0.447371 92.880600 -1.196710 88.364600 -8.657600 3.236310 15.735700 0.000005 -0.000001 100.700000 86.743000 -101.142000 8.984550 -0.406207 -0.000000 -1.360450 1.244370 -0.867930 16.377300 -0.000001 -0.000001 4.383560 -2.388530 5.272510 6.456720 -0.000001 -0.000000 8.229430 -1.767750 -4.148580 12.994200 -0.242716 4.980390 -90.385100 1.172240 -71.812000 5.348090 -0.000007 -0.000001 -68.903400 37.741600 -9.299200 24.328600 0.000019 0.000005 3.350170 8.795580 -20.948000 22.291600 -0.000001 0.000005 4.009870 5.486490 -5.998640 12.994500 -0.242716 -4.980390 88.832000 3.690130 -72.422800 -5.348130 -0.000001 -0.000004 -71.394800 -18.203200 -77.856300 -24.328900 0.000322 -0.000009 15.989400 -4.000630 -103.684000 -22.291500 -0.000108 -0.000004 19.753900 5.231040 1.928350 -2.192480 -6.469440 -0.000000 -176.209000 -10.608100 -0.747843 39.081100 -0.000007 -0.000012 -0.072258 0.220523 18.142100 40.985400 -0.000006 -0.000013 -0.731747 -0.471222 -63.973000 11.754300 -0.000000 0.000003 -0.000000 -0.000000 -16.577500 -2.192510 6.469440 -0.000001 178.696000 6.976300 -179.082000 -39.081100 -0.002282 -0.040193 -0.032993 0.140285 14.516800 -40.985400 0.000008 0.000006 1.416860 9.649100 -62.536900 -11.754300 -0.000006 -0.000006 -0.003770 -0.049030 -18.567400
0.000000 0.000000 0.000000 0.000000 0.000000 -0.000000 0.408971 92.887000 -1.226340 88.356500 -8.588250 3.175640 15.735700 0.000005 -0.000001 100.654000 86.709600 -101.074000 8.984550 -0.406207 -0.000000 -1.293940 1.249580 -0.826248 16.377300 -0.000001 -0.000001 4.281220 -2.405190 5.377600 6.456720 -0.000001 -0.000000 8.213760 -1.681310 -4.241520 12.994200 -0.242716 4.980390 -90.406800 1.238400 -71.813800 5.348090 -0.000007 -0.000001 -68.712700 37.921000 -9.453210 24.328600 0.000019 0.000005 3.328610 8.717270 -20.994000 22.291600 -0.000001 0.000005 3.986950 5.487900 -6.053720 12.994500 -0.242716 -4.980390 88.813700 3.731830 -72.350600 -5.348130 -0.000001 -0.000004 -70.275100 -18.322100 -76.183400 -24.328900 0.000322 -0.000009 15.569500 -4.104950 -104.409000 -22.291500 -0.000108 -0.000004 19.789400 5.229000 1.981300 -2.192480 -6.469440 -0.000000 -176.175000 -10.657900 -0.831943 39.081100 -0.000007 -0.000012 -0.072777 0.222358 18.123100 40.985400 -0.000006 -0.000013 -0.736231 -0.351785 -63.925700 11.754300 -0.000000 0.000003 -0.000000 -0.000001 -16.577500 -2.192510 6.469440 -0.000001 178.752000 7.004360 -179.138000 -39.081100 -0.002282 -0.040193 -0.032531 0.138944 14.472400 -40.985400 0.000008 0.000006 1.423010 9.596520 -62.494500 -11.754300 -0.000006 -0.000006 -0.003620 -0.047432 -18.502300
0.000000 0.000000 0.000000 0.000000 0.000000 -0.000000 0.364005 92.894300 -1.251940 88.385800 -8.433970 3.193110 15.735700 0.000005 -0.000001 100.135000 86.656500 -100.548000 8.984550 -0.406207 -0.000000 -1.178860 1.208710 -0.814264 16.377300 -0.000001 -0.000001 4.147760 -2.291610 5.329550 6.456720 -0.000001 -0.000000 8.160900 -1.505630 -4.109490 12.994200 -0.242716 4.980390 -90.437700 1.327920 -71.756400 5.348090 -0.000007 -0.000001 -68.600300 37.906500 -9.579380 24.328600 0.000019 0.000005 3.356580 8.743940 -21.096800 22.291600 -0.000001 0.000005 4.047350 5.489230 -6.105520 12.994500 -0.242716 -4.980390 88.744900 3.932700 -72.283700 -5.348130 -0.000001 -0.000004 -68.095400 -18.216300 -73.188300 -24.328900 0.000322 -0.000009 14.413400 -4.103170 -105.559000 -22.291500 -0.000108 -0.000004 19.844400 5.227690 2.015120 -2.192480 -6.469440 -0.000000 -176.197000 -10.431400 -0.807832 39.081100 -0.000007 -0.000012 -0.070950 0.217813 18.042300 40.985400 -0.000006 -0.000013 -0.771748 -0.411359 -63.864300 11.754300 -0.000000 0.000003 -0.000011 -0.000188 -16.585100 -2.192510 6.469440 -0.000001 178.758000 7.141410 -179.112000 -39.081100 -0.002282 -0.040193 -0.030948 0.132897 14.463500 -40.985400 0.000008 0.000006 1.516620 9.546400 -62.509200 -11.754300 -0.000006 -0.000006 -0.003958 -0.051007 -18.647900
